# xmcd CD database file
#
# Track frame offsets:
#	150
#	22837
#	46539
#	59646
#	73672
#	85248
#	101232
#	113073
#	134421
#	146213
#	156381
#	181546
#	195573
#
# Disc length: 2824 seconds
#
# Revision: 5
# Processed by: cddbd v1.4PL0 Copyright (c) Steve Scherf et al.
# Submitted via: CDex 1.40Release
#
DISCID=b20b060d
DTITLE=Chuck E. Weiss - Extremely Cool
DYEAR=1999
DGENRE=Blues
TTITLE0=Devil with Blue Suede Shoes
TTITLE1=Deeply Sorry
TTITLE2=Oh Marcy
TTITLE3=Pygmy Fund
TTITLE4=It Rains on Me
TTITLE5=Sonny Could Lick all Them Cats
TTITLE6=Jimmy Would
TTITLE7=Extremely Cool
TTITLE8=Just Don't Care
TTITLE9=Roll on Jordan
TTITLE10=Do You Know What I Idi Amin
TTITLE11=Horseface
TTITLE12=Rocking in the Kibbitz Room
EXTD=ID3G: 0
EXTT0=
EXTT1=
EXTT2=
EXTT3=
EXTT4=
EXTT5=
EXTT6=
EXTT7=
EXTT8=
EXTT9=
EXTT10=
EXTT11=
EXTT12=
PLAYORDER=
